<mxfile host="app.diagrams.net" agent="Mozilla/5.0 (X11; Linux x86_64) AppleWebKit/537.36 (KHTML, like Gecko) Chrome/127.0.0.0 Safari/537.36" version="24.7.16" pages="5">
  <diagram id="w2oK2VQrxp5fxtBiEYFH" name="Page-1">
    <mxGraphModel dx="1156" dy="1550" grid="0" gridSize="10" guides="1" tooltips="1" connect="1" arrows="1" fold="1" page="0" pageScale="1" pageWidth="583" pageHeight="413" math="0" shadow="0">
      <root>
        <mxCell id="0" />
        <mxCell id="1" parent="0" />
        <mxCell id="Lv37l02AzGUA9rHbLD9D-1" value="" style="verticalLabelPosition=bottom;shadow=0;dashed=0;align=center;html=1;verticalAlign=top;shape=mxgraph.electrical.logic_gates.logic_gate;operation=or;negating=1;negSize=0.15;" parent="1" vertex="1">
          <mxGeometry x="-4" y="-104" width="100" height="60" as="geometry" />
        </mxCell>
        <mxCell id="Lv37l02AzGUA9rHbLD9D-2" style="edgeStyle=none;curved=1;rounded=0;orthogonalLoop=1;jettySize=auto;html=1;exitX=0;exitY=0.25;exitDx=0;exitDy=0;exitPerimeter=0;entryX=0;entryY=0.75;entryDx=0;entryDy=0;entryPerimeter=0;fontSize=12;startSize=8;endSize=8;endArrow=none;endFill=0;" parent="1" source="Lv37l02AzGUA9rHbLD9D-1" target="Lv37l02AzGUA9rHbLD9D-1" edge="1">
          <mxGeometry relative="1" as="geometry" />
        </mxCell>
        <mxCell id="Lv37l02AzGUA9rHbLD9D-3" value="" style="verticalLabelPosition=bottom;shadow=0;dashed=0;align=center;html=1;verticalAlign=top;shape=mxgraph.electrical.logic_gates.logic_gate;operation=or;negating=1;negSize=0.15;" parent="1" vertex="1">
          <mxGeometry x="-2" y="-21" width="100" height="60" as="geometry" />
        </mxCell>
        <mxCell id="Lv37l02AzGUA9rHbLD9D-4" style="edgeStyle=none;curved=1;rounded=0;orthogonalLoop=1;jettySize=auto;html=1;exitX=0;exitY=0.25;exitDx=0;exitDy=0;exitPerimeter=0;entryX=0;entryY=0.75;entryDx=0;entryDy=0;entryPerimeter=0;fontSize=12;startSize=8;endSize=8;endArrow=none;endFill=0;" parent="1" source="Lv37l02AzGUA9rHbLD9D-3" target="Lv37l02AzGUA9rHbLD9D-3" edge="1">
          <mxGeometry relative="1" as="geometry" />
        </mxCell>
        <mxCell id="Lv37l02AzGUA9rHbLD9D-5" value="" style="verticalLabelPosition=bottom;shadow=0;dashed=0;align=center;html=1;verticalAlign=top;shape=mxgraph.electrical.logic_gates.logic_gate;operation=or;negating=1;negSize=0.15;" parent="1" vertex="1">
          <mxGeometry x="94" y="87" width="100" height="60" as="geometry" />
        </mxCell>
        <mxCell id="Lv37l02AzGUA9rHbLD9D-6" value="" style="verticalLabelPosition=bottom;shadow=0;dashed=0;align=center;html=1;verticalAlign=top;shape=mxgraph.electrical.logic_gates.logic_gate;operation=or;negating=1;negSize=0.15;" parent="1" vertex="1">
          <mxGeometry x="141" y="-63" width="100" height="60" as="geometry" />
        </mxCell>
        <mxCell id="Lv37l02AzGUA9rHbLD9D-7" style="edgeStyle=none;curved=1;rounded=0;orthogonalLoop=1;jettySize=auto;html=1;exitX=1;exitY=0.5;exitDx=0;exitDy=0;exitPerimeter=0;entryX=0;entryY=0.75;entryDx=0;entryDy=0;entryPerimeter=0;fontSize=12;startSize=8;endSize=8;endArrow=none;endFill=0;" parent="1" source="Lv37l02AzGUA9rHbLD9D-3" target="Lv37l02AzGUA9rHbLD9D-6" edge="1">
          <mxGeometry relative="1" as="geometry" />
        </mxCell>
        <mxCell id="Lv37l02AzGUA9rHbLD9D-8" style="edgeStyle=none;curved=1;rounded=0;orthogonalLoop=1;jettySize=auto;html=1;exitX=1;exitY=0.5;exitDx=0;exitDy=0;exitPerimeter=0;entryX=0;entryY=0.25;entryDx=0;entryDy=0;entryPerimeter=0;fontSize=12;startSize=8;endSize=8;endArrow=none;endFill=0;" parent="1" source="Lv37l02AzGUA9rHbLD9D-1" target="Lv37l02AzGUA9rHbLD9D-6" edge="1">
          <mxGeometry relative="1" as="geometry" />
        </mxCell>
        <mxCell id="Lv37l02AzGUA9rHbLD9D-19" style="edgeStyle=none;curved=1;rounded=0;orthogonalLoop=1;jettySize=auto;html=1;exitX=1;exitY=0.5;exitDx=0;exitDy=0;exitPerimeter=0;fontSize=12;startSize=8;endSize=8;endArrow=none;endFill=0;" parent="1" source="Lv37l02AzGUA9rHbLD9D-9" edge="1">
          <mxGeometry relative="1" as="geometry">
            <mxPoint x="408" y="37" as="targetPoint" />
          </mxGeometry>
        </mxCell>
        <mxCell id="Lv37l02AzGUA9rHbLD9D-9" value="" style="verticalLabelPosition=bottom;shadow=0;dashed=0;align=center;html=1;verticalAlign=top;shape=mxgraph.electrical.logic_gates.logic_gate;operation=or;negating=1;negSize=0.15;" parent="1" vertex="1">
          <mxGeometry x="271" y="7" width="100" height="60" as="geometry" />
        </mxCell>
        <mxCell id="Lv37l02AzGUA9rHbLD9D-11" style="edgeStyle=none;curved=1;rounded=0;orthogonalLoop=1;jettySize=auto;html=1;exitX=1;exitY=0.5;exitDx=0;exitDy=0;exitPerimeter=0;entryX=0;entryY=0.25;entryDx=0;entryDy=0;entryPerimeter=0;fontSize=12;startSize=8;endSize=8;endArrow=none;endFill=0;" parent="1" source="Lv37l02AzGUA9rHbLD9D-6" target="Lv37l02AzGUA9rHbLD9D-9" edge="1">
          <mxGeometry relative="1" as="geometry" />
        </mxCell>
        <mxCell id="Lv37l02AzGUA9rHbLD9D-12" style="edgeStyle=none;curved=1;rounded=0;orthogonalLoop=1;jettySize=auto;html=1;exitX=1;exitY=0.5;exitDx=0;exitDy=0;exitPerimeter=0;entryX=0;entryY=0.75;entryDx=0;entryDy=0;entryPerimeter=0;fontSize=12;startSize=8;endSize=8;endArrow=none;endFill=0;" parent="1" source="Lv37l02AzGUA9rHbLD9D-5" target="Lv37l02AzGUA9rHbLD9D-9" edge="1">
          <mxGeometry relative="1" as="geometry" />
        </mxCell>
        <mxCell id="Lv37l02AzGUA9rHbLD9D-13" value="" style="endArrow=none;html=1;rounded=0;fontSize=12;startSize=8;endSize=8;curved=1;" parent="1" edge="1">
          <mxGeometry width="50" height="50" relative="1" as="geometry">
            <mxPoint x="-200" y="-76" as="sourcePoint" />
            <mxPoint x="-4" y="-74" as="targetPoint" />
          </mxGeometry>
        </mxCell>
        <mxCell id="Lv37l02AzGUA9rHbLD9D-14" value="" style="endArrow=none;html=1;rounded=0;fontSize=12;startSize=8;endSize=8;curved=1;" parent="1" edge="1">
          <mxGeometry width="50" height="50" relative="1" as="geometry">
            <mxPoint x="-95" y="10" as="sourcePoint" />
            <mxPoint x="-5" y="10" as="targetPoint" />
          </mxGeometry>
        </mxCell>
        <mxCell id="Lv37l02AzGUA9rHbLD9D-15" value="" style="endArrow=none;html=1;rounded=0;fontSize=12;startSize=8;endSize=8;curved=0;entryX=0;entryY=0.25;entryDx=0;entryDy=0;entryPerimeter=0;" parent="1" target="Lv37l02AzGUA9rHbLD9D-5" edge="1">
          <mxGeometry width="50" height="50" relative="1" as="geometry">
            <mxPoint x="-47" y="12" as="sourcePoint" />
            <mxPoint x="-42" y="99" as="targetPoint" />
            <Array as="points">
              <mxPoint x="-47" y="102" />
            </Array>
          </mxGeometry>
        </mxCell>
        <mxCell id="Lv37l02AzGUA9rHbLD9D-16" value="" style="endArrow=none;html=1;rounded=0;fontSize=12;startSize=8;endSize=8;curved=0;" parent="1" edge="1">
          <mxGeometry width="50" height="50" relative="1" as="geometry">
            <mxPoint x="-142" y="-76" as="sourcePoint" />
            <mxPoint x="93" y="130" as="targetPoint" />
            <Array as="points">
              <mxPoint x="-142" y="130" />
            </Array>
          </mxGeometry>
        </mxCell>
        <mxCell id="Lv37l02AzGUA9rHbLD9D-17" value="x1" style="text;html=1;align=center;verticalAlign=middle;resizable=0;points=[];autosize=1;strokeColor=none;fillColor=none;fontSize=16;" parent="1" vertex="1">
          <mxGeometry x="-206.5" y="-111.5" width="35" height="31" as="geometry" />
        </mxCell>
        <mxCell id="Lv37l02AzGUA9rHbLD9D-18" value="x2" style="text;html=1;align=center;verticalAlign=middle;resizable=0;points=[];autosize=1;strokeColor=none;fillColor=none;fontSize=16;" parent="1" vertex="1">
          <mxGeometry x="-88.5" y="-21.5" width="35" height="31" as="geometry" />
        </mxCell>
        <mxCell id="Lv37l02AzGUA9rHbLD9D-20" value="f" style="text;html=1;align=center;verticalAlign=middle;resizable=0;points=[];autosize=1;strokeColor=none;fillColor=none;fontSize=16;" parent="1" vertex="1">
          <mxGeometry x="362.5" y="-12.5" width="22" height="31" as="geometry" />
        </mxCell>
      </root>
    </mxGraphModel>
  </diagram>
  <diagram id="MliLImmd_fVtg1Jvcbos" name="4.1">
    <mxGraphModel dx="916" dy="1550" grid="0" gridSize="10" guides="1" tooltips="1" connect="1" arrows="1" fold="1" page="0" pageScale="1" pageWidth="583" pageHeight="413" math="0" shadow="0">
      <root>
        <mxCell id="0" />
        <mxCell id="1" parent="0" />
        <mxCell id="jy5EzXe8iRxfkU3GLA38-1" value="" style="rounded=0;whiteSpace=wrap;html=1;" vertex="1" parent="1">
          <mxGeometry x="77" y="-60" width="116" height="314" as="geometry" />
        </mxCell>
        <mxCell id="jy5EzXe8iRxfkU3GLA38-2" value="P7" style="text;html=1;align=center;verticalAlign=middle;whiteSpace=wrap;rounded=0;fontSize=16;" vertex="1" parent="1">
          <mxGeometry x="66" y="222" width="60" height="30" as="geometry" />
        </mxCell>
        <mxCell id="jy5EzXe8iRxfkU3GLA38-3" value="" style="endArrow=none;html=1;rounded=0;fontSize=12;startSize=8;endSize=8;curved=1;entryX=0;entryY=0.5;entryDx=0;entryDy=0;startArrow=classic;startFill=1;endFill=0;" edge="1" parent="1" target="jy5EzXe8iRxfkU3GLA38-2">
          <mxGeometry width="50" height="50" relative="1" as="geometry">
            <mxPoint x="-44" y="237" as="sourcePoint" />
            <mxPoint x="225" y="175" as="targetPoint" />
          </mxGeometry>
        </mxCell>
        <mxCell id="jy5EzXe8iRxfkU3GLA38-4" value="GND" style="text;html=1;align=center;verticalAlign=middle;resizable=0;points=[];autosize=1;strokeColor=none;fillColor=none;fontSize=16;" vertex="1" parent="1">
          <mxGeometry x="-25.5" y="207.5" width="54" height="31" as="geometry" />
        </mxCell>
        <mxCell id="jy5EzXe8iRxfkU3GLA38-5" value="P14" style="text;html=1;align=center;verticalAlign=middle;resizable=0;points=[];autosize=1;strokeColor=none;fillColor=none;fontSize=16;" vertex="1" parent="1">
          <mxGeometry x="147" y="-60" width="46" height="31" as="geometry" />
        </mxCell>
        <mxCell id="jy5EzXe8iRxfkU3GLA38-6" value="" style="endArrow=classic;html=1;rounded=0;fontSize=12;startSize=8;endSize=8;curved=1;entryX=1;entryY=0.484;entryDx=0;entryDy=0;entryPerimeter=0;" edge="1" parent="1" target="jy5EzXe8iRxfkU3GLA38-5">
          <mxGeometry width="50" height="50" relative="1" as="geometry">
            <mxPoint x="302" y="-45" as="sourcePoint" />
            <mxPoint x="189" y="175" as="targetPoint" />
          </mxGeometry>
        </mxCell>
        <mxCell id="jy5EzXe8iRxfkU3GLA38-7" value="P1" style="text;html=1;align=center;verticalAlign=middle;resizable=0;points=[];autosize=1;strokeColor=none;fillColor=none;fontSize=16;" vertex="1" parent="1">
          <mxGeometry x="77" y="-60" width="38" height="31" as="geometry" />
        </mxCell>
        <mxCell id="jy5EzXe8iRxfkU3GLA38-8" value="P2" style="text;html=1;align=center;verticalAlign=middle;resizable=0;points=[];autosize=1;strokeColor=none;fillColor=none;fontSize=16;" vertex="1" parent="1">
          <mxGeometry x="77" y="-12" width="38" height="31" as="geometry" />
        </mxCell>
        <mxCell id="jy5EzXe8iRxfkU3GLA38-9" value="P3" style="text;html=1;align=center;verticalAlign=middle;resizable=0;points=[];autosize=1;strokeColor=none;fillColor=none;fontSize=16;" vertex="1" parent="1">
          <mxGeometry x="77" y="37" width="38" height="31" as="geometry" />
        </mxCell>
        <mxCell id="jy5EzXe8iRxfkU3GLA38-10" value="P8" style="text;html=1;align=center;verticalAlign=middle;resizable=0;points=[];autosize=1;strokeColor=none;fillColor=none;fontSize=16;" vertex="1" parent="1">
          <mxGeometry x="155" y="222" width="38" height="31" as="geometry" />
        </mxCell>
        <mxCell id="jy5EzXe8iRxfkU3GLA38-11" value="P9" style="text;html=1;align=center;verticalAlign=middle;resizable=0;points=[];autosize=1;strokeColor=none;fillColor=none;fontSize=16;" vertex="1" parent="1">
          <mxGeometry x="151" y="180" width="38" height="31" as="geometry" />
        </mxCell>
        <mxCell id="jy5EzXe8iRxfkU3GLA38-12" value="P10" style="text;html=1;align=center;verticalAlign=middle;resizable=0;points=[];autosize=1;strokeColor=none;fillColor=none;fontSize=16;" vertex="1" parent="1">
          <mxGeometry x="147" y="134" width="46" height="31" as="geometry" />
        </mxCell>
        <mxCell id="jy5EzXe8iRxfkU3GLA38-13" value="P6" style="text;html=1;align=center;verticalAlign=middle;resizable=0;points=[];autosize=1;strokeColor=none;fillColor=none;fontSize=16;" vertex="1" parent="1">
          <mxGeometry x="77" y="180" width="38" height="31" as="geometry" />
        </mxCell>
        <mxCell id="jy5EzXe8iRxfkU3GLA38-14" value="P5" style="text;html=1;align=center;verticalAlign=middle;resizable=0;points=[];autosize=1;strokeColor=none;fillColor=none;fontSize=16;" vertex="1" parent="1">
          <mxGeometry x="77" y="134" width="38" height="31" as="geometry" />
        </mxCell>
        <mxCell id="jy5EzXe8iRxfkU3GLA38-15" value="P4" style="text;html=1;align=center;verticalAlign=middle;resizable=0;points=[];autosize=1;strokeColor=none;fillColor=none;fontSize=16;" vertex="1" parent="1">
          <mxGeometry x="77" y="86" width="38" height="31" as="geometry" />
        </mxCell>
        <mxCell id="jy5EzXe8iRxfkU3GLA38-16" value="" style="endArrow=classic;html=1;rounded=0;fontSize=12;startSize=8;endSize=8;curved=1;entryX=-0.053;entryY=0.516;entryDx=0;entryDy=0;entryPerimeter=0;" edge="1" parent="1" target="jy5EzXe8iRxfkU3GLA38-7">
          <mxGeometry width="50" height="50" relative="1" as="geometry">
            <mxPoint x="-54" y="-44" as="sourcePoint" />
            <mxPoint x="180" y="217" as="targetPoint" />
          </mxGeometry>
        </mxCell>
        <mxCell id="jy5EzXe8iRxfkU3GLA38-17" value="SW_1, A" style="text;html=1;align=center;verticalAlign=middle;resizable=0;points=[];autosize=1;strokeColor=none;fillColor=none;fontSize=16;" vertex="1" parent="1">
          <mxGeometry x="-31" y="-78" width="80" height="31" as="geometry" />
        </mxCell>
        <mxCell id="jy5EzXe8iRxfkU3GLA38-18" value="" style="endArrow=classic;html=1;rounded=0;fontSize=12;startSize=8;endSize=8;curved=1;entryX=-0.053;entryY=0.516;entryDx=0;entryDy=0;entryPerimeter=0;" edge="1" parent="1" target="jy5EzXe8iRxfkU3GLA38-8">
          <mxGeometry width="50" height="50" relative="1" as="geometry">
            <mxPoint x="-52" y="4" as="sourcePoint" />
            <mxPoint x="180" y="217" as="targetPoint" />
          </mxGeometry>
        </mxCell>
        <mxCell id="jy5EzXe8iRxfkU3GLA38-20" value="" style="endArrow=classic;html=1;rounded=0;fontSize=12;startSize=8;endSize=8;curved=1;exitX=-0.026;exitY=0.516;exitDx=0;exitDy=0;exitPerimeter=0;" edge="1" parent="1" source="jy5EzXe8iRxfkU3GLA38-9">
          <mxGeometry width="50" height="50" relative="1" as="geometry">
            <mxPoint x="130" y="267" as="sourcePoint" />
            <mxPoint x="-51" y="53" as="targetPoint" />
          </mxGeometry>
        </mxCell>
        <mxCell id="jy5EzXe8iRxfkU3GLA38-21" value="B" style="text;html=1;align=center;verticalAlign=middle;resizable=0;points=[];autosize=1;strokeColor=none;fillColor=none;fontSize=16;" vertex="1" parent="1">
          <mxGeometry x="-5.5" y="24" width="29" height="31" as="geometry" />
        </mxCell>
        <mxCell id="jy5EzXe8iRxfkU3GLA38-22" value="" style="endArrow=classic;html=1;rounded=0;fontSize=12;startSize=8;endSize=8;curved=1;entryX=-0.026;entryY=0.613;entryDx=0;entryDy=0;entryPerimeter=0;" edge="1" parent="1" target="jy5EzXe8iRxfkU3GLA38-15">
          <mxGeometry width="50" height="50" relative="1" as="geometry">
            <mxPoint x="-49" y="104" as="sourcePoint" />
            <mxPoint x="180" y="217" as="targetPoint" />
          </mxGeometry>
        </mxCell>
        <mxCell id="jy5EzXe8iRxfkU3GLA38-23" value="" style="endArrow=classic;html=1;rounded=0;fontSize=12;startSize=8;endSize=8;curved=1;entryX=-0.026;entryY=0.613;entryDx=0;entryDy=0;entryPerimeter=0;" edge="1" parent="1">
          <mxGeometry width="50" height="50" relative="1" as="geometry">
            <mxPoint x="-49.5" y="149" as="sourcePoint" />
            <mxPoint x="75.5" y="150" as="targetPoint" />
          </mxGeometry>
        </mxCell>
        <mxCell id="jy5EzXe8iRxfkU3GLA38-26" value="" style="endArrow=classic;html=1;rounded=0;fontSize=12;startSize=8;endSize=8;curved=1;" edge="1" parent="1">
          <mxGeometry width="50" height="50" relative="1" as="geometry">
            <mxPoint x="76" y="193" as="sourcePoint" />
            <mxPoint x="-43" y="193" as="targetPoint" />
          </mxGeometry>
        </mxCell>
        <mxCell id="jy5EzXe8iRxfkU3GLA38-30" value="VCC" style="text;html=1;align=center;verticalAlign=middle;resizable=0;points=[];autosize=1;strokeColor=none;fillColor=none;fontSize=16;" vertex="1" parent="1">
          <mxGeometry x="226" y="-78" width="52" height="31" as="geometry" />
        </mxCell>
        <mxCell id="jy5EzXe8iRxfkU3GLA38-31" value="P11" style="text;html=1;align=center;verticalAlign=middle;resizable=0;points=[];autosize=1;strokeColor=none;fillColor=none;fontSize=16;" vertex="1" parent="1">
          <mxGeometry x="152" y="91" width="45" height="31" as="geometry" />
        </mxCell>
        <mxCell id="jy5EzXe8iRxfkU3GLA38-32" value="P12" style="text;html=1;align=center;verticalAlign=middle;resizable=0;points=[];autosize=1;strokeColor=none;fillColor=none;fontSize=16;" vertex="1" parent="1">
          <mxGeometry x="151" y="43" width="46" height="31" as="geometry" />
        </mxCell>
        <mxCell id="jy5EzXe8iRxfkU3GLA38-33" value="P13" style="text;html=1;align=center;verticalAlign=middle;resizable=0;points=[];autosize=1;strokeColor=none;fillColor=none;fontSize=16;" vertex="1" parent="1">
          <mxGeometry x="151" y="-7" width="46" height="31" as="geometry" />
        </mxCell>
        <mxCell id="jy5EzXe8iRxfkU3GLA38-34" value="" style="endArrow=classic;html=1;rounded=0;fontSize=12;startSize=8;endSize=8;curved=1;entryX=-0.026;entryY=0.613;entryDx=0;entryDy=0;entryPerimeter=0;" edge="1" parent="1">
          <mxGeometry width="50" height="50" relative="1" as="geometry">
            <mxPoint x="189.5" y="106" as="sourcePoint" />
            <mxPoint x="314.5" y="107" as="targetPoint" />
          </mxGeometry>
        </mxCell>
        <mxCell id="jy5EzXe8iRxfkU3GLA38-35" value="LED" style="text;html=1;align=center;verticalAlign=middle;resizable=0;points=[];autosize=1;strokeColor=none;fillColor=none;fontSize=16;" vertex="1" parent="1">
          <mxGeometry x="221.5" y="79.5" width="49" height="31" as="geometry" />
        </mxCell>
        <mxCell id="jy5EzXe8iRxfkU3GLA38-36" value="A" style="text;html=1;align=center;verticalAlign=middle;resizable=0;points=[];autosize=1;strokeColor=none;fillColor=none;fontSize=16;" vertex="1" parent="1">
          <mxGeometry x="-4.5" y="-32.5" width="29" height="31" as="geometry" />
        </mxCell>
        <mxCell id="jy5EzXe8iRxfkU3GLA38-37" value="" style="endArrow=classic;html=1;rounded=0;fontSize=12;startSize=8;endSize=8;curved=1;exitX=-0.026;exitY=0.516;exitDx=0;exitDy=0;exitPerimeter=0;" edge="1" parent="1">
          <mxGeometry width="50" height="50" relative="1" as="geometry">
            <mxPoint x="320" y="10" as="sourcePoint" />
            <mxPoint x="193" y="10" as="targetPoint" />
          </mxGeometry>
        </mxCell>
        <mxCell id="jy5EzXe8iRxfkU3GLA38-38" value="" style="endArrow=classic;html=1;rounded=0;fontSize=12;startSize=8;endSize=8;curved=1;exitX=-0.026;exitY=0.516;exitDx=0;exitDy=0;exitPerimeter=0;" edge="1" parent="1">
          <mxGeometry width="50" height="50" relative="1" as="geometry">
            <mxPoint x="320" y="60" as="sourcePoint" />
            <mxPoint x="193" y="60" as="targetPoint" />
          </mxGeometry>
        </mxCell>
        <mxCell id="jy5EzXe8iRxfkU3GLA38-39" value="" style="endArrow=classic;html=1;rounded=0;fontSize=12;startSize=8;endSize=8;curved=1;exitX=-0.026;exitY=0.516;exitDx=0;exitDy=0;exitPerimeter=0;" edge="1" parent="1">
          <mxGeometry width="50" height="50" relative="1" as="geometry">
            <mxPoint x="320" y="149" as="sourcePoint" />
            <mxPoint x="193" y="149" as="targetPoint" />
          </mxGeometry>
        </mxCell>
        <mxCell id="jy5EzXe8iRxfkU3GLA38-40" value="" style="endArrow=classic;html=1;rounded=0;fontSize=12;startSize=8;endSize=8;curved=1;exitX=-0.026;exitY=0.516;exitDx=0;exitDy=0;exitPerimeter=0;" edge="1" parent="1">
          <mxGeometry width="50" height="50" relative="1" as="geometry">
            <mxPoint x="320" y="196" as="sourcePoint" />
            <mxPoint x="193" y="196" as="targetPoint" />
          </mxGeometry>
        </mxCell>
        <mxCell id="jy5EzXe8iRxfkU3GLA38-41" value="" style="endArrow=classic;html=1;rounded=0;fontSize=12;startSize=8;endSize=8;curved=1;entryX=-0.026;entryY=0.613;entryDx=0;entryDy=0;entryPerimeter=0;" edge="1" parent="1">
          <mxGeometry width="50" height="50" relative="1" as="geometry">
            <mxPoint x="197" y="236.5" as="sourcePoint" />
            <mxPoint x="322" y="237.5" as="targetPoint" />
          </mxGeometry>
        </mxCell>
        <mxCell id="jy5EzXe8iRxfkU3GLA38-42" value="B" style="text;html=1;align=center;verticalAlign=middle;resizable=0;points=[];autosize=1;strokeColor=none;fillColor=none;fontSize=16;" vertex="1" parent="1">
          <mxGeometry x="233.5" y="-22.5" width="29" height="31" as="geometry" />
        </mxCell>
        <mxCell id="jy5EzXe8iRxfkU3GLA38-43" value="SW_2" style="text;html=1;align=center;verticalAlign=middle;resizable=0;points=[];autosize=1;strokeColor=none;fillColor=none;fontSize=16;" vertex="1" parent="1">
          <mxGeometry x="229.5" y="163.5" width="62" height="31" as="geometry" />
        </mxCell>
        <mxCell id="jy5EzXe8iRxfkU3GLA38-44" value="SW_3, C" style="text;html=1;align=center;verticalAlign=middle;resizable=0;points=[];autosize=1;strokeColor=none;fillColor=none;fontSize=16;" vertex="1" parent="1">
          <mxGeometry x="-40.5" y="72.5" width="82" height="31" as="geometry" />
        </mxCell>
        <mxCell id="jy5EzXe8iRxfkU3GLA38-45" value="E" style="text;html=1;align=center;verticalAlign=middle;resizable=0;points=[];autosize=1;strokeColor=none;fillColor=none;fontSize=16;" vertex="1" parent="1">
          <mxGeometry x="234.5" y="198.5" width="29" height="31" as="geometry" />
        </mxCell>
        <mxCell id="jy5EzXe8iRxfkU3GLA38-46" value="E" style="text;html=1;align=center;verticalAlign=middle;resizable=0;points=[];autosize=1;strokeColor=none;fillColor=none;fontSize=16;" vertex="1" parent="1">
          <mxGeometry x="250.5" y="33.5" width="29" height="31" as="geometry" />
        </mxCell>
        <mxCell id="jy5EzXe8iRxfkU3GLA38-47" value="D" style="text;html=1;align=center;verticalAlign=middle;resizable=0;points=[];autosize=1;strokeColor=none;fillColor=none;fontSize=16;" vertex="1" parent="1">
          <mxGeometry x="16.5" y="162.5" width="30" height="31" as="geometry" />
        </mxCell>
        <mxCell id="jy5EzXe8iRxfkU3GLA38-48" value="D" style="text;html=1;align=center;verticalAlign=middle;resizable=0;points=[];autosize=1;strokeColor=none;fillColor=none;fontSize=16;" vertex="1" parent="1">
          <mxGeometry x="233.5" y="115.5" width="30" height="31" as="geometry" />
        </mxCell>
        <mxCell id="jy5EzXe8iRxfkU3GLA38-50" value="C" style="text;html=1;align=center;verticalAlign=middle;resizable=0;points=[];autosize=1;strokeColor=none;fillColor=none;fontSize=16;" vertex="1" parent="1">
          <mxGeometry x="-4.5" y="117" width="30" height="31" as="geometry" />
        </mxCell>
      </root>
    </mxGraphModel>
  </diagram>
  <diagram id="kCjj-pFSOoJGiCfVFzV7" name="4.2">
    <mxGraphModel dx="1045" dy="1838" grid="0" gridSize="10" guides="1" tooltips="1" connect="1" arrows="1" fold="1" page="0" pageScale="1" pageWidth="583" pageHeight="413" math="0" shadow="0">
      <root>
        <mxCell id="0" />
        <mxCell id="1" parent="0" />
        <mxCell id="zlg2cOHlUDHoueOj3F5M-1" value="" style="rounded=0;whiteSpace=wrap;html=1;" vertex="1" parent="1">
          <mxGeometry x="77" y="-60" width="116" height="314" as="geometry" />
        </mxCell>
        <mxCell id="zlg2cOHlUDHoueOj3F5M-2" value="P7" style="text;html=1;align=center;verticalAlign=middle;whiteSpace=wrap;rounded=0;fontSize=16;" vertex="1" parent="1">
          <mxGeometry x="66" y="222" width="60" height="30" as="geometry" />
        </mxCell>
        <mxCell id="zlg2cOHlUDHoueOj3F5M-3" value="" style="endArrow=none;html=1;rounded=0;fontSize=12;startSize=8;endSize=8;curved=1;entryX=0;entryY=0.5;entryDx=0;entryDy=0;startArrow=classic;startFill=1;endFill=0;" edge="1" parent="1" target="zlg2cOHlUDHoueOj3F5M-2">
          <mxGeometry width="50" height="50" relative="1" as="geometry">
            <mxPoint x="-44" y="237" as="sourcePoint" />
            <mxPoint x="225" y="175" as="targetPoint" />
          </mxGeometry>
        </mxCell>
        <mxCell id="zlg2cOHlUDHoueOj3F5M-4" value="GND" style="text;html=1;align=center;verticalAlign=middle;resizable=0;points=[];autosize=1;strokeColor=none;fillColor=none;fontSize=16;" vertex="1" parent="1">
          <mxGeometry x="-25.5" y="207.5" width="54" height="31" as="geometry" />
        </mxCell>
        <mxCell id="zlg2cOHlUDHoueOj3F5M-5" value="P14" style="text;html=1;align=center;verticalAlign=middle;resizable=0;points=[];autosize=1;strokeColor=none;fillColor=none;fontSize=16;" vertex="1" parent="1">
          <mxGeometry x="147" y="-60" width="46" height="31" as="geometry" />
        </mxCell>
        <mxCell id="zlg2cOHlUDHoueOj3F5M-6" value="" style="endArrow=classic;html=1;rounded=0;fontSize=12;startSize=8;endSize=8;curved=1;entryX=1;entryY=0.484;entryDx=0;entryDy=0;entryPerimeter=0;" edge="1" parent="1" target="zlg2cOHlUDHoueOj3F5M-5">
          <mxGeometry width="50" height="50" relative="1" as="geometry">
            <mxPoint x="302" y="-45" as="sourcePoint" />
            <mxPoint x="189" y="175" as="targetPoint" />
          </mxGeometry>
        </mxCell>
        <mxCell id="zlg2cOHlUDHoueOj3F5M-7" value="P1" style="text;html=1;align=center;verticalAlign=middle;resizable=0;points=[];autosize=1;strokeColor=none;fillColor=none;fontSize=16;" vertex="1" parent="1">
          <mxGeometry x="77" y="-60" width="38" height="31" as="geometry" />
        </mxCell>
        <mxCell id="zlg2cOHlUDHoueOj3F5M-8" value="P2" style="text;html=1;align=center;verticalAlign=middle;resizable=0;points=[];autosize=1;strokeColor=none;fillColor=none;fontSize=16;" vertex="1" parent="1">
          <mxGeometry x="77" y="-12" width="38" height="31" as="geometry" />
        </mxCell>
        <mxCell id="zlg2cOHlUDHoueOj3F5M-9" value="P3" style="text;html=1;align=center;verticalAlign=middle;resizable=0;points=[];autosize=1;strokeColor=none;fillColor=none;fontSize=16;" vertex="1" parent="1">
          <mxGeometry x="77" y="37" width="38" height="31" as="geometry" />
        </mxCell>
        <mxCell id="zlg2cOHlUDHoueOj3F5M-10" value="P8" style="text;html=1;align=center;verticalAlign=middle;resizable=0;points=[];autosize=1;strokeColor=none;fillColor=none;fontSize=16;" vertex="1" parent="1">
          <mxGeometry x="155" y="222" width="38" height="31" as="geometry" />
        </mxCell>
        <mxCell id="zlg2cOHlUDHoueOj3F5M-11" value="P9" style="text;html=1;align=center;verticalAlign=middle;resizable=0;points=[];autosize=1;strokeColor=none;fillColor=none;fontSize=16;" vertex="1" parent="1">
          <mxGeometry x="151" y="180" width="38" height="31" as="geometry" />
        </mxCell>
        <mxCell id="zlg2cOHlUDHoueOj3F5M-12" value="P10" style="text;html=1;align=center;verticalAlign=middle;resizable=0;points=[];autosize=1;strokeColor=none;fillColor=none;fontSize=16;" vertex="1" parent="1">
          <mxGeometry x="147" y="134" width="46" height="31" as="geometry" />
        </mxCell>
        <mxCell id="zlg2cOHlUDHoueOj3F5M-13" value="P6" style="text;html=1;align=center;verticalAlign=middle;resizable=0;points=[];autosize=1;strokeColor=none;fillColor=none;fontSize=16;" vertex="1" parent="1">
          <mxGeometry x="77" y="180" width="38" height="31" as="geometry" />
        </mxCell>
        <mxCell id="zlg2cOHlUDHoueOj3F5M-14" value="P5" style="text;html=1;align=center;verticalAlign=middle;resizable=0;points=[];autosize=1;strokeColor=none;fillColor=none;fontSize=16;" vertex="1" parent="1">
          <mxGeometry x="77" y="134" width="38" height="31" as="geometry" />
        </mxCell>
        <mxCell id="zlg2cOHlUDHoueOj3F5M-15" value="P4" style="text;html=1;align=center;verticalAlign=middle;resizable=0;points=[];autosize=1;strokeColor=none;fillColor=none;fontSize=16;" vertex="1" parent="1">
          <mxGeometry x="77" y="86" width="38" height="31" as="geometry" />
        </mxCell>
        <mxCell id="zlg2cOHlUDHoueOj3F5M-16" value="" style="endArrow=classic;html=1;rounded=0;fontSize=12;startSize=8;endSize=8;curved=1;entryX=-0.053;entryY=0.516;entryDx=0;entryDy=0;entryPerimeter=0;" edge="1" parent="1">
          <mxGeometry width="50" height="50" relative="1" as="geometry">
            <mxPoint x="-54" y="2.8800000000000026" as="sourcePoint" />
            <mxPoint x="74.98599999999988" y="2.876000000000097" as="targetPoint" />
          </mxGeometry>
        </mxCell>
        <mxCell id="zlg2cOHlUDHoueOj3F5M-22" value="" style="endArrow=classic;html=1;rounded=0;fontSize=12;startSize=8;endSize=8;curved=1;entryX=-0.026;entryY=0.613;entryDx=0;entryDy=0;entryPerimeter=0;" edge="1" parent="1">
          <mxGeometry width="50" height="50" relative="1" as="geometry">
            <mxPoint x="-48" y="57.879999999999995" as="sourcePoint" />
            <mxPoint x="77" y="58.879999999999995" as="targetPoint" />
          </mxGeometry>
        </mxCell>
        <mxCell id="zlg2cOHlUDHoueOj3F5M-23" value="" style="endArrow=classic;html=1;rounded=0;fontSize=12;startSize=8;endSize=8;curved=1;" edge="1" parent="1">
          <mxGeometry width="50" height="50" relative="1" as="geometry">
            <mxPoint x="74" y="-42" as="sourcePoint" />
            <mxPoint x="-45" y="-42" as="targetPoint" />
          </mxGeometry>
        </mxCell>
        <mxCell id="zlg2cOHlUDHoueOj3F5M-24" value="VCC" style="text;html=1;align=center;verticalAlign=middle;resizable=0;points=[];autosize=1;strokeColor=none;fillColor=none;fontSize=16;" vertex="1" parent="1">
          <mxGeometry x="226" y="-78" width="52" height="31" as="geometry" />
        </mxCell>
        <mxCell id="zlg2cOHlUDHoueOj3F5M-25" value="P11" style="text;html=1;align=center;verticalAlign=middle;resizable=0;points=[];autosize=1;strokeColor=none;fillColor=none;fontSize=16;" vertex="1" parent="1">
          <mxGeometry x="152" y="91" width="45" height="31" as="geometry" />
        </mxCell>
        <mxCell id="zlg2cOHlUDHoueOj3F5M-26" value="P12" style="text;html=1;align=center;verticalAlign=middle;resizable=0;points=[];autosize=1;strokeColor=none;fillColor=none;fontSize=16;" vertex="1" parent="1">
          <mxGeometry x="151" y="43" width="46" height="31" as="geometry" />
        </mxCell>
        <mxCell id="zlg2cOHlUDHoueOj3F5M-27" value="P13" style="text;html=1;align=center;verticalAlign=middle;resizable=0;points=[];autosize=1;strokeColor=none;fillColor=none;fontSize=16;" vertex="1" parent="1">
          <mxGeometry x="151" y="-7" width="46" height="31" as="geometry" />
        </mxCell>
        <mxCell id="zlg2cOHlUDHoueOj3F5M-28" value="" style="endArrow=classic;html=1;rounded=0;fontSize=12;startSize=8;endSize=8;curved=1;entryX=-0.026;entryY=0.613;entryDx=0;entryDy=0;entryPerimeter=0;" edge="1" parent="1">
          <mxGeometry width="50" height="50" relative="1" as="geometry">
            <mxPoint x="193" y="7.8799999999999955" as="sourcePoint" />
            <mxPoint x="318" y="8.879999999999995" as="targetPoint" />
          </mxGeometry>
        </mxCell>
        <mxCell id="zlg2cOHlUDHoueOj3F5M-29" value="LED" style="text;html=1;align=center;verticalAlign=middle;resizable=0;points=[];autosize=1;strokeColor=none;fillColor=none;fontSize=16;" vertex="1" parent="1">
          <mxGeometry x="221" y="-22" width="49" height="31" as="geometry" />
        </mxCell>
        <mxCell id="zlg2cOHlUDHoueOj3F5M-31" value="" style="endArrow=classic;html=1;rounded=0;fontSize=12;startSize=8;endSize=8;curved=1;exitX=-0.026;exitY=0.516;exitDx=0;exitDy=0;exitPerimeter=0;" edge="1" parent="1">
          <mxGeometry width="50" height="50" relative="1" as="geometry">
            <mxPoint x="324" y="238.5" as="sourcePoint" />
            <mxPoint x="197" y="238.5" as="targetPoint" />
          </mxGeometry>
        </mxCell>
        <mxCell id="zlg2cOHlUDHoueOj3F5M-32" value="" style="endArrow=classic;html=1;rounded=0;fontSize=12;startSize=8;endSize=8;curved=1;exitX=-0.026;exitY=0.516;exitDx=0;exitDy=0;exitPerimeter=0;" edge="1" parent="1">
          <mxGeometry width="50" height="50" relative="1" as="geometry">
            <mxPoint x="320" y="60" as="sourcePoint" />
            <mxPoint x="193" y="60" as="targetPoint" />
          </mxGeometry>
        </mxCell>
        <mxCell id="zlg2cOHlUDHoueOj3F5M-33" value="" style="endArrow=classic;html=1;rounded=0;fontSize=12;startSize=8;endSize=8;curved=1;exitX=-0.026;exitY=0.516;exitDx=0;exitDy=0;exitPerimeter=0;" edge="1" parent="1">
          <mxGeometry width="50" height="50" relative="1" as="geometry">
            <mxPoint x="324" y="105.88" as="sourcePoint" />
            <mxPoint x="197" y="105.88" as="targetPoint" />
          </mxGeometry>
        </mxCell>
        <mxCell id="zlg2cOHlUDHoueOj3F5M-34" value="" style="endArrow=classic;html=1;rounded=0;fontSize=12;startSize=8;endSize=8;curved=1;exitX=-0.026;exitY=0.516;exitDx=0;exitDy=0;exitPerimeter=0;" edge="1" parent="1">
          <mxGeometry width="50" height="50" relative="1" as="geometry">
            <mxPoint x="320" y="196" as="sourcePoint" />
            <mxPoint x="193" y="196" as="targetPoint" />
          </mxGeometry>
        </mxCell>
        <mxCell id="zlg2cOHlUDHoueOj3F5M-44" value="" style="endArrow=classic;html=1;rounded=0;fontSize=12;startSize=8;endSize=8;curved=1;entryX=-0.026;entryY=0.613;entryDx=0;entryDy=0;entryPerimeter=0;" edge="1" parent="1">
          <mxGeometry width="50" height="50" relative="1" as="geometry">
            <mxPoint x="197" y="148.88" as="sourcePoint" />
            <mxPoint x="322" y="149.88" as="targetPoint" />
          </mxGeometry>
        </mxCell>
        <mxCell id="zlg2cOHlUDHoueOj3F5M-45" value="" style="endArrow=classic;html=1;rounded=0;fontSize=12;startSize=8;endSize=8;curved=1;" edge="1" parent="1">
          <mxGeometry width="50" height="50" relative="1" as="geometry">
            <mxPoint x="77" y="100.87" as="sourcePoint" />
            <mxPoint x="-42" y="100.87" as="targetPoint" />
          </mxGeometry>
        </mxCell>
        <mxCell id="zlg2cOHlUDHoueOj3F5M-46" value="" style="endArrow=classic;html=1;rounded=0;fontSize=12;startSize=8;endSize=8;curved=1;entryX=-0.026;entryY=0.613;entryDx=0;entryDy=0;entryPerimeter=0;" edge="1" parent="1">
          <mxGeometry width="50" height="50" relative="1" as="geometry">
            <mxPoint x="-45" y="148.88" as="sourcePoint" />
            <mxPoint x="80" y="149.88" as="targetPoint" />
          </mxGeometry>
        </mxCell>
        <mxCell id="zlg2cOHlUDHoueOj3F5M-47" value="" style="endArrow=classic;html=1;rounded=0;fontSize=12;startSize=8;endSize=8;curved=1;entryX=-0.026;entryY=0.613;entryDx=0;entryDy=0;entryPerimeter=0;" edge="1" parent="1">
          <mxGeometry width="50" height="50" relative="1" as="geometry">
            <mxPoint x="-48" y="199" as="sourcePoint" />
            <mxPoint x="77" y="200" as="targetPoint" />
          </mxGeometry>
        </mxCell>
        <mxCell id="zlg2cOHlUDHoueOj3F5M-48" value="SW_3, A" style="text;html=1;align=center;verticalAlign=middle;resizable=0;points=[];autosize=1;strokeColor=none;fillColor=none;fontSize=16;" vertex="1" parent="1">
          <mxGeometry x="226" y="207.5" width="80" height="31" as="geometry" />
        </mxCell>
        <mxCell id="zlg2cOHlUDHoueOj3F5M-49" value="SW_1" style="text;html=1;align=center;verticalAlign=middle;resizable=0;points=[];autosize=1;strokeColor=none;fillColor=none;fontSize=16;" vertex="1" parent="1">
          <mxGeometry x="-21.5" y="-28.5" width="62" height="31" as="geometry" />
        </mxCell>
        <mxCell id="zlg2cOHlUDHoueOj3F5M-50" value="SW_2" style="text;html=1;align=center;verticalAlign=middle;resizable=0;points=[];autosize=1;strokeColor=none;fillColor=none;fontSize=16;" vertex="1" parent="1">
          <mxGeometry x="-21.5" y="117" width="62" height="31" as="geometry" />
        </mxCell>
        <mxCell id="zlg2cOHlUDHoueOj3F5M-51" value="A" style="text;html=1;align=center;verticalAlign=middle;resizable=0;points=[];autosize=1;strokeColor=none;fillColor=none;fontSize=16;" vertex="1" parent="1">
          <mxGeometry x="255.5" y="169.5" width="29" height="31" as="geometry" />
        </mxCell>
        <mxCell id="zlg2cOHlUDHoueOj3F5M-52" value="B" style="text;html=1;align=center;verticalAlign=middle;resizable=0;points=[];autosize=1;strokeColor=none;fillColor=none;fontSize=16;" vertex="1" parent="1">
          <mxGeometry x="245.5" y="119.5" width="29" height="31" as="geometry" />
        </mxCell>
        <mxCell id="zlg2cOHlUDHoueOj3F5M-53" value="B" style="text;html=1;align=center;verticalAlign=middle;resizable=0;points=[];autosize=1;strokeColor=none;fillColor=none;fontSize=16;" vertex="1" parent="1">
          <mxGeometry x="-4.5" y="169.5" width="29" height="31" as="geometry" />
        </mxCell>
        <mxCell id="zlg2cOHlUDHoueOj3F5M-54" value="C, D" style="text;html=1;align=center;verticalAlign=middle;resizable=0;points=[];autosize=1;strokeColor=none;fillColor=none;fontSize=16;" vertex="1" parent="1">
          <mxGeometry x="-26.5" y="71.5" width="50" height="31" as="geometry" />
        </mxCell>
        <mxCell id="zlg2cOHlUDHoueOj3F5M-55" value="C" style="text;html=1;align=center;verticalAlign=middle;resizable=0;points=[];autosize=1;strokeColor=none;fillColor=none;fontSize=16;" vertex="1" parent="1">
          <mxGeometry x="240" y="74" width="30" height="31" as="geometry" />
        </mxCell>
        <mxCell id="zlg2cOHlUDHoueOj3F5M-56" value="D" style="text;html=1;align=center;verticalAlign=middle;resizable=0;points=[];autosize=1;strokeColor=none;fillColor=none;fontSize=16;" vertex="1" parent="1">
          <mxGeometry x="-4.5" y="30.5" width="30" height="31" as="geometry" />
        </mxCell>
        <mxCell id="zlg2cOHlUDHoueOj3F5M-57" value="E" style="text;html=1;align=center;verticalAlign=middle;resizable=0;points=[];autosize=1;strokeColor=none;fillColor=none;fontSize=16;" vertex="1" parent="1">
          <mxGeometry x="-6.5" y="-70.5" width="29" height="31" as="geometry" />
        </mxCell>
        <mxCell id="zlg2cOHlUDHoueOj3F5M-58" value="E" style="text;html=1;align=center;verticalAlign=middle;resizable=0;points=[];autosize=1;strokeColor=none;fillColor=none;fontSize=16;" vertex="1" parent="1">
          <mxGeometry x="241.5" y="32.5" width="29" height="31" as="geometry" />
        </mxCell>
      </root>
    </mxGraphModel>
  </diagram>
  <diagram id="Os3b3tzjJ40yfMvG91SH" name="4.4 NAND">
    <mxGraphModel dx="1102" dy="1445" grid="0" gridSize="10" guides="1" tooltips="1" connect="1" arrows="1" fold="1" page="0" pageScale="1" pageWidth="583" pageHeight="413" math="0" shadow="0">
      <root>
        <mxCell id="0" />
        <mxCell id="1" parent="0" />
        <mxCell id="vFdwCDFciHjPy-rFYfPk-1" value="" style="rounded=0;whiteSpace=wrap;html=1;" vertex="1" parent="1">
          <mxGeometry x="77" y="-60" width="116" height="314" as="geometry" />
        </mxCell>
        <mxCell id="vFdwCDFciHjPy-rFYfPk-2" value="P7" style="text;html=1;align=center;verticalAlign=middle;whiteSpace=wrap;rounded=0;fontSize=16;" vertex="1" parent="1">
          <mxGeometry x="66" y="222" width="60" height="30" as="geometry" />
        </mxCell>
        <mxCell id="vFdwCDFciHjPy-rFYfPk-3" value="" style="endArrow=none;html=1;rounded=0;fontSize=12;startSize=8;endSize=8;curved=1;entryX=0;entryY=0.5;entryDx=0;entryDy=0;startArrow=classic;startFill=1;endFill=0;" edge="1" parent="1" target="vFdwCDFciHjPy-rFYfPk-2">
          <mxGeometry width="50" height="50" relative="1" as="geometry">
            <mxPoint x="-44" y="237" as="sourcePoint" />
            <mxPoint x="225" y="175" as="targetPoint" />
          </mxGeometry>
        </mxCell>
        <mxCell id="vFdwCDFciHjPy-rFYfPk-4" value="GND" style="text;html=1;align=center;verticalAlign=middle;resizable=0;points=[];autosize=1;strokeColor=none;fillColor=none;fontSize=16;" vertex="1" parent="1">
          <mxGeometry x="-25.5" y="207.5" width="54" height="31" as="geometry" />
        </mxCell>
        <mxCell id="vFdwCDFciHjPy-rFYfPk-5" value="P14" style="text;html=1;align=center;verticalAlign=middle;resizable=0;points=[];autosize=1;strokeColor=none;fillColor=none;fontSize=16;" vertex="1" parent="1">
          <mxGeometry x="147" y="-60" width="46" height="31" as="geometry" />
        </mxCell>
        <mxCell id="vFdwCDFciHjPy-rFYfPk-6" value="" style="endArrow=classic;html=1;rounded=0;fontSize=12;startSize=8;endSize=8;curved=1;entryX=1;entryY=0.484;entryDx=0;entryDy=0;entryPerimeter=0;" edge="1" parent="1" target="vFdwCDFciHjPy-rFYfPk-5">
          <mxGeometry width="50" height="50" relative="1" as="geometry">
            <mxPoint x="302" y="-45" as="sourcePoint" />
            <mxPoint x="189" y="175" as="targetPoint" />
          </mxGeometry>
        </mxCell>
        <mxCell id="vFdwCDFciHjPy-rFYfPk-7" value="P1" style="text;html=1;align=center;verticalAlign=middle;resizable=0;points=[];autosize=1;strokeColor=none;fillColor=none;fontSize=16;" vertex="1" parent="1">
          <mxGeometry x="77" y="-60" width="38" height="31" as="geometry" />
        </mxCell>
        <mxCell id="vFdwCDFciHjPy-rFYfPk-8" value="P2" style="text;html=1;align=center;verticalAlign=middle;resizable=0;points=[];autosize=1;strokeColor=none;fillColor=none;fontSize=16;" vertex="1" parent="1">
          <mxGeometry x="77" y="-12" width="38" height="31" as="geometry" />
        </mxCell>
        <mxCell id="vFdwCDFciHjPy-rFYfPk-9" value="P3" style="text;html=1;align=center;verticalAlign=middle;resizable=0;points=[];autosize=1;strokeColor=none;fillColor=none;fontSize=16;" vertex="1" parent="1">
          <mxGeometry x="77" y="37" width="38" height="31" as="geometry" />
        </mxCell>
        <mxCell id="vFdwCDFciHjPy-rFYfPk-10" value="P8" style="text;html=1;align=center;verticalAlign=middle;resizable=0;points=[];autosize=1;strokeColor=none;fillColor=none;fontSize=16;" vertex="1" parent="1">
          <mxGeometry x="155" y="222" width="38" height="31" as="geometry" />
        </mxCell>
        <mxCell id="vFdwCDFciHjPy-rFYfPk-11" value="P9" style="text;html=1;align=center;verticalAlign=middle;resizable=0;points=[];autosize=1;strokeColor=none;fillColor=none;fontSize=16;" vertex="1" parent="1">
          <mxGeometry x="151" y="180" width="38" height="31" as="geometry" />
        </mxCell>
        <mxCell id="vFdwCDFciHjPy-rFYfPk-12" value="P10" style="text;html=1;align=center;verticalAlign=middle;resizable=0;points=[];autosize=1;strokeColor=none;fillColor=none;fontSize=16;" vertex="1" parent="1">
          <mxGeometry x="147" y="134" width="46" height="31" as="geometry" />
        </mxCell>
        <mxCell id="vFdwCDFciHjPy-rFYfPk-13" value="P6" style="text;html=1;align=center;verticalAlign=middle;resizable=0;points=[];autosize=1;strokeColor=none;fillColor=none;fontSize=16;" vertex="1" parent="1">
          <mxGeometry x="77" y="180" width="38" height="31" as="geometry" />
        </mxCell>
        <mxCell id="vFdwCDFciHjPy-rFYfPk-14" value="P5" style="text;html=1;align=center;verticalAlign=middle;resizable=0;points=[];autosize=1;strokeColor=none;fillColor=none;fontSize=16;" vertex="1" parent="1">
          <mxGeometry x="77" y="134" width="38" height="31" as="geometry" />
        </mxCell>
        <mxCell id="vFdwCDFciHjPy-rFYfPk-15" value="P4" style="text;html=1;align=center;verticalAlign=middle;resizable=0;points=[];autosize=1;strokeColor=none;fillColor=none;fontSize=16;" vertex="1" parent="1">
          <mxGeometry x="77" y="86" width="38" height="31" as="geometry" />
        </mxCell>
        <mxCell id="vFdwCDFciHjPy-rFYfPk-16" value="" style="endArrow=classic;html=1;rounded=0;fontSize=12;startSize=8;endSize=8;curved=1;entryX=-0.053;entryY=0.516;entryDx=0;entryDy=0;entryPerimeter=0;" edge="1" parent="1" target="vFdwCDFciHjPy-rFYfPk-7">
          <mxGeometry width="50" height="50" relative="1" as="geometry">
            <mxPoint x="-54" y="-44" as="sourcePoint" />
            <mxPoint x="180" y="217" as="targetPoint" />
          </mxGeometry>
        </mxCell>
        <mxCell id="vFdwCDFciHjPy-rFYfPk-18" value="" style="endArrow=classic;html=1;rounded=0;fontSize=12;startSize=8;endSize=8;curved=1;entryX=-0.053;entryY=0.516;entryDx=0;entryDy=0;entryPerimeter=0;" edge="1" parent="1" target="vFdwCDFciHjPy-rFYfPk-8">
          <mxGeometry width="50" height="50" relative="1" as="geometry">
            <mxPoint x="-52" y="4" as="sourcePoint" />
            <mxPoint x="180" y="217" as="targetPoint" />
          </mxGeometry>
        </mxCell>
        <mxCell id="vFdwCDFciHjPy-rFYfPk-19" value="" style="endArrow=classic;html=1;rounded=0;fontSize=12;startSize=8;endSize=8;curved=1;exitX=-0.026;exitY=0.516;exitDx=0;exitDy=0;exitPerimeter=0;" edge="1" parent="1" source="vFdwCDFciHjPy-rFYfPk-9">
          <mxGeometry width="50" height="50" relative="1" as="geometry">
            <mxPoint x="130" y="267" as="sourcePoint" />
            <mxPoint x="-51" y="53" as="targetPoint" />
          </mxGeometry>
        </mxCell>
        <mxCell id="vFdwCDFciHjPy-rFYfPk-21" value="" style="endArrow=classic;html=1;rounded=0;fontSize=12;startSize=8;endSize=8;curved=1;entryX=-0.026;entryY=0.613;entryDx=0;entryDy=0;entryPerimeter=0;" edge="1" parent="1" target="vFdwCDFciHjPy-rFYfPk-15">
          <mxGeometry width="50" height="50" relative="1" as="geometry">
            <mxPoint x="-49" y="104" as="sourcePoint" />
            <mxPoint x="180" y="217" as="targetPoint" />
          </mxGeometry>
        </mxCell>
        <mxCell id="vFdwCDFciHjPy-rFYfPk-22" value="" style="endArrow=classic;html=1;rounded=0;fontSize=12;startSize=8;endSize=8;curved=1;entryX=-0.026;entryY=0.613;entryDx=0;entryDy=0;entryPerimeter=0;" edge="1" parent="1">
          <mxGeometry width="50" height="50" relative="1" as="geometry">
            <mxPoint x="-49.5" y="149" as="sourcePoint" />
            <mxPoint x="75.5" y="150" as="targetPoint" />
          </mxGeometry>
        </mxCell>
        <mxCell id="vFdwCDFciHjPy-rFYfPk-23" value="" style="endArrow=classic;html=1;rounded=0;fontSize=12;startSize=8;endSize=8;curved=1;" edge="1" parent="1">
          <mxGeometry width="50" height="50" relative="1" as="geometry">
            <mxPoint x="76" y="193" as="sourcePoint" />
            <mxPoint x="-43" y="193" as="targetPoint" />
          </mxGeometry>
        </mxCell>
        <mxCell id="vFdwCDFciHjPy-rFYfPk-24" value="VCC" style="text;html=1;align=center;verticalAlign=middle;resizable=0;points=[];autosize=1;strokeColor=none;fillColor=none;fontSize=16;" vertex="1" parent="1">
          <mxGeometry x="226" y="-78" width="52" height="31" as="geometry" />
        </mxCell>
        <mxCell id="vFdwCDFciHjPy-rFYfPk-25" value="P11" style="text;html=1;align=center;verticalAlign=middle;resizable=0;points=[];autosize=1;strokeColor=none;fillColor=none;fontSize=16;" vertex="1" parent="1">
          <mxGeometry x="152" y="91" width="45" height="31" as="geometry" />
        </mxCell>
        <mxCell id="vFdwCDFciHjPy-rFYfPk-26" value="P12" style="text;html=1;align=center;verticalAlign=middle;resizable=0;points=[];autosize=1;strokeColor=none;fillColor=none;fontSize=16;" vertex="1" parent="1">
          <mxGeometry x="151" y="43" width="46" height="31" as="geometry" />
        </mxCell>
        <mxCell id="vFdwCDFciHjPy-rFYfPk-27" value="P13" style="text;html=1;align=center;verticalAlign=middle;resizable=0;points=[];autosize=1;strokeColor=none;fillColor=none;fontSize=16;" vertex="1" parent="1">
          <mxGeometry x="151" y="-7" width="46" height="31" as="geometry" />
        </mxCell>
        <mxCell id="vFdwCDFciHjPy-rFYfPk-28" value="" style="endArrow=classic;html=1;rounded=0;fontSize=12;startSize=8;endSize=8;curved=1;entryX=-0.026;entryY=0.613;entryDx=0;entryDy=0;entryPerimeter=0;" edge="1" parent="1">
          <mxGeometry width="50" height="50" relative="1" as="geometry">
            <mxPoint x="189.5" y="106" as="sourcePoint" />
            <mxPoint x="314.5" y="107" as="targetPoint" />
          </mxGeometry>
        </mxCell>
        <mxCell id="vFdwCDFciHjPy-rFYfPk-29" value="LED" style="text;html=1;align=center;verticalAlign=middle;resizable=0;points=[];autosize=1;strokeColor=none;fillColor=none;fontSize=16;" vertex="1" parent="1">
          <mxGeometry x="221.5" y="79.5" width="49" height="31" as="geometry" />
        </mxCell>
        <mxCell id="vFdwCDFciHjPy-rFYfPk-30" value="SW_1, A" style="text;html=1;align=center;verticalAlign=middle;resizable=0;points=[];autosize=1;strokeColor=none;fillColor=none;fontSize=16;" vertex="1" parent="1">
          <mxGeometry x="-29.5" y="-32.5" width="80" height="31" as="geometry" />
        </mxCell>
        <mxCell id="vFdwCDFciHjPy-rFYfPk-31" value="" style="endArrow=classic;html=1;rounded=0;fontSize=12;startSize=8;endSize=8;curved=1;exitX=-0.026;exitY=0.516;exitDx=0;exitDy=0;exitPerimeter=0;" edge="1" parent="1">
          <mxGeometry width="50" height="50" relative="1" as="geometry">
            <mxPoint x="320" y="10" as="sourcePoint" />
            <mxPoint x="193" y="10" as="targetPoint" />
          </mxGeometry>
        </mxCell>
        <mxCell id="vFdwCDFciHjPy-rFYfPk-32" value="" style="endArrow=classic;html=1;rounded=0;fontSize=12;startSize=8;endSize=8;curved=1;exitX=-0.026;exitY=0.516;exitDx=0;exitDy=0;exitPerimeter=0;" edge="1" parent="1">
          <mxGeometry width="50" height="50" relative="1" as="geometry">
            <mxPoint x="320" y="60" as="sourcePoint" />
            <mxPoint x="193" y="60" as="targetPoint" />
          </mxGeometry>
        </mxCell>
        <mxCell id="vFdwCDFciHjPy-rFYfPk-33" value="" style="endArrow=classic;html=1;rounded=0;fontSize=12;startSize=8;endSize=8;curved=1;exitX=-0.026;exitY=0.516;exitDx=0;exitDy=0;exitPerimeter=0;" edge="1" parent="1">
          <mxGeometry width="50" height="50" relative="1" as="geometry">
            <mxPoint x="320" y="149" as="sourcePoint" />
            <mxPoint x="193" y="149" as="targetPoint" />
          </mxGeometry>
        </mxCell>
        <mxCell id="vFdwCDFciHjPy-rFYfPk-34" value="" style="endArrow=classic;html=1;rounded=0;fontSize=12;startSize=8;endSize=8;curved=1;exitX=-0.026;exitY=0.516;exitDx=0;exitDy=0;exitPerimeter=0;" edge="1" parent="1">
          <mxGeometry width="50" height="50" relative="1" as="geometry">
            <mxPoint x="320" y="196" as="sourcePoint" />
            <mxPoint x="193" y="196" as="targetPoint" />
          </mxGeometry>
        </mxCell>
        <mxCell id="vFdwCDFciHjPy-rFYfPk-35" value="" style="endArrow=classic;html=1;rounded=0;fontSize=12;startSize=8;endSize=8;curved=1;entryX=-0.026;entryY=0.613;entryDx=0;entryDy=0;entryPerimeter=0;" edge="1" parent="1">
          <mxGeometry width="50" height="50" relative="1" as="geometry">
            <mxPoint x="197" y="236.5" as="sourcePoint" />
            <mxPoint x="322" y="237.5" as="targetPoint" />
          </mxGeometry>
        </mxCell>
        <mxCell id="vFdwCDFciHjPy-rFYfPk-38" value="SW_2, B" style="text;html=1;align=center;verticalAlign=middle;resizable=0;points=[];autosize=1;strokeColor=none;fillColor=none;fontSize=16;" vertex="1" parent="1">
          <mxGeometry x="-30.5" y="-72" width="81" height="31" as="geometry" />
        </mxCell>
        <mxCell id="vFdwCDFciHjPy-rFYfPk-44" value="A" style="text;html=1;align=center;verticalAlign=middle;resizable=0;points=[];autosize=1;strokeColor=none;fillColor=none;fontSize=16;" vertex="1" parent="1">
          <mxGeometry x="-21.5" y="79.5" width="29" height="31" as="geometry" />
        </mxCell>
        <mxCell id="vFdwCDFciHjPy-rFYfPk-45" value="B" style="text;html=1;align=center;verticalAlign=middle;resizable=0;points=[];autosize=1;strokeColor=none;fillColor=none;fontSize=16;" vertex="1" parent="1">
          <mxGeometry x="238.5" y="166.5" width="29" height="31" as="geometry" />
        </mxCell>
        <mxCell id="vFdwCDFciHjPy-rFYfPk-46" value="C, D" style="text;html=1;align=center;verticalAlign=middle;resizable=0;points=[];autosize=1;strokeColor=none;fillColor=none;fontSize=16;" vertex="1" parent="1">
          <mxGeometry x="-25.5" y="17.5" width="50" height="31" as="geometry" />
        </mxCell>
        <mxCell id="vFdwCDFciHjPy-rFYfPk-47" value="C" style="text;html=1;align=center;verticalAlign=middle;resizable=0;points=[];autosize=1;strokeColor=none;fillColor=none;fontSize=16;" vertex="1" parent="1">
          <mxGeometry x="-8.5" y="121.5" width="30" height="31" as="geometry" />
        </mxCell>
        <mxCell id="vFdwCDFciHjPy-rFYfPk-48" value="D" style="text;html=1;align=center;verticalAlign=middle;resizable=0;points=[];autosize=1;strokeColor=none;fillColor=none;fontSize=16;" vertex="1" parent="1">
          <mxGeometry x="235.5" y="122.5" width="30" height="31" as="geometry" />
        </mxCell>
        <mxCell id="vFdwCDFciHjPy-rFYfPk-49" value="E" style="text;html=1;align=center;verticalAlign=middle;resizable=0;points=[];autosize=1;strokeColor=none;fillColor=none;fontSize=16;" vertex="1" parent="1">
          <mxGeometry x="13.5" y="161.5" width="29" height="31" as="geometry" />
        </mxCell>
        <mxCell id="vFdwCDFciHjPy-rFYfPk-50" value="E" style="text;html=1;align=center;verticalAlign=middle;resizable=0;points=[];autosize=1;strokeColor=none;fillColor=none;fontSize=16;" vertex="1" parent="1">
          <mxGeometry x="231.5" y="29" width="29" height="31" as="geometry" />
        </mxCell>
        <mxCell id="vFdwCDFciHjPy-rFYfPk-51" value="F" style="text;html=1;align=center;verticalAlign=middle;resizable=0;points=[];autosize=1;strokeColor=none;fillColor=none;fontSize=16;" vertex="1" parent="1">
          <mxGeometry x="242.5" y="199.5" width="28" height="31" as="geometry" />
        </mxCell>
        <mxCell id="vFdwCDFciHjPy-rFYfPk-52" value="F" style="text;html=1;align=center;verticalAlign=middle;resizable=0;points=[];autosize=1;strokeColor=none;fillColor=none;fontSize=16;" vertex="1" parent="1">
          <mxGeometry x="233.5" y="-16.5" width="28" height="31" as="geometry" />
        </mxCell>
      </root>
    </mxGraphModel>
  </diagram>
  <diagram id="A5ewnhQm2fGNkyShpv1Y" name="4.4 NOR">
    <mxGraphModel dx="1172" dy="1550" grid="0" gridSize="10" guides="1" tooltips="1" connect="1" arrows="1" fold="1" page="0" pageScale="1" pageWidth="583" pageHeight="413" math="0" shadow="0">
      <root>
        <mxCell id="0" />
        <mxCell id="1" parent="0" />
        <mxCell id="G_kxq7jRXtpMgkCP8lNp-1" value="" style="rounded=0;whiteSpace=wrap;html=1;" vertex="1" parent="1">
          <mxGeometry x="77" y="-60" width="116" height="314" as="geometry" />
        </mxCell>
        <mxCell id="G_kxq7jRXtpMgkCP8lNp-2" value="P7" style="text;html=1;align=center;verticalAlign=middle;whiteSpace=wrap;rounded=0;fontSize=16;" vertex="1" parent="1">
          <mxGeometry x="66" y="222" width="60" height="30" as="geometry" />
        </mxCell>
        <mxCell id="G_kxq7jRXtpMgkCP8lNp-3" value="" style="endArrow=none;html=1;rounded=0;fontSize=12;startSize=8;endSize=8;curved=1;entryX=0;entryY=0.5;entryDx=0;entryDy=0;startArrow=classic;startFill=1;endFill=0;" edge="1" parent="1" target="G_kxq7jRXtpMgkCP8lNp-2">
          <mxGeometry width="50" height="50" relative="1" as="geometry">
            <mxPoint x="-44" y="237" as="sourcePoint" />
            <mxPoint x="225" y="175" as="targetPoint" />
          </mxGeometry>
        </mxCell>
        <mxCell id="G_kxq7jRXtpMgkCP8lNp-4" value="GND" style="text;html=1;align=center;verticalAlign=middle;resizable=0;points=[];autosize=1;strokeColor=none;fillColor=none;fontSize=16;" vertex="1" parent="1">
          <mxGeometry x="-25.5" y="207.5" width="54" height="31" as="geometry" />
        </mxCell>
        <mxCell id="G_kxq7jRXtpMgkCP8lNp-5" value="P14" style="text;html=1;align=center;verticalAlign=middle;resizable=0;points=[];autosize=1;strokeColor=none;fillColor=none;fontSize=16;" vertex="1" parent="1">
          <mxGeometry x="147" y="-60" width="46" height="31" as="geometry" />
        </mxCell>
        <mxCell id="G_kxq7jRXtpMgkCP8lNp-6" value="" style="endArrow=classic;html=1;rounded=0;fontSize=12;startSize=8;endSize=8;curved=1;entryX=1;entryY=0.484;entryDx=0;entryDy=0;entryPerimeter=0;" edge="1" parent="1" target="G_kxq7jRXtpMgkCP8lNp-5">
          <mxGeometry width="50" height="50" relative="1" as="geometry">
            <mxPoint x="302" y="-45" as="sourcePoint" />
            <mxPoint x="189" y="175" as="targetPoint" />
          </mxGeometry>
        </mxCell>
        <mxCell id="G_kxq7jRXtpMgkCP8lNp-7" value="P1" style="text;html=1;align=center;verticalAlign=middle;resizable=0;points=[];autosize=1;strokeColor=none;fillColor=none;fontSize=16;" vertex="1" parent="1">
          <mxGeometry x="77" y="-60" width="38" height="31" as="geometry" />
        </mxCell>
        <mxCell id="G_kxq7jRXtpMgkCP8lNp-8" value="P2" style="text;html=1;align=center;verticalAlign=middle;resizable=0;points=[];autosize=1;strokeColor=none;fillColor=none;fontSize=16;" vertex="1" parent="1">
          <mxGeometry x="77" y="-12" width="38" height="31" as="geometry" />
        </mxCell>
        <mxCell id="G_kxq7jRXtpMgkCP8lNp-9" value="P3" style="text;html=1;align=center;verticalAlign=middle;resizable=0;points=[];autosize=1;strokeColor=none;fillColor=none;fontSize=16;" vertex="1" parent="1">
          <mxGeometry x="77" y="37" width="38" height="31" as="geometry" />
        </mxCell>
        <mxCell id="G_kxq7jRXtpMgkCP8lNp-10" value="P8" style="text;html=1;align=center;verticalAlign=middle;resizable=0;points=[];autosize=1;strokeColor=none;fillColor=none;fontSize=16;" vertex="1" parent="1">
          <mxGeometry x="155" y="222" width="38" height="31" as="geometry" />
        </mxCell>
        <mxCell id="G_kxq7jRXtpMgkCP8lNp-11" value="P9" style="text;html=1;align=center;verticalAlign=middle;resizable=0;points=[];autosize=1;strokeColor=none;fillColor=none;fontSize=16;" vertex="1" parent="1">
          <mxGeometry x="151" y="180" width="38" height="31" as="geometry" />
        </mxCell>
        <mxCell id="G_kxq7jRXtpMgkCP8lNp-12" value="P10" style="text;html=1;align=center;verticalAlign=middle;resizable=0;points=[];autosize=1;strokeColor=none;fillColor=none;fontSize=16;" vertex="1" parent="1">
          <mxGeometry x="147" y="134" width="46" height="31" as="geometry" />
        </mxCell>
        <mxCell id="G_kxq7jRXtpMgkCP8lNp-13" value="P6" style="text;html=1;align=center;verticalAlign=middle;resizable=0;points=[];autosize=1;strokeColor=none;fillColor=none;fontSize=16;" vertex="1" parent="1">
          <mxGeometry x="77" y="180" width="38" height="31" as="geometry" />
        </mxCell>
        <mxCell id="G_kxq7jRXtpMgkCP8lNp-14" value="P5" style="text;html=1;align=center;verticalAlign=middle;resizable=0;points=[];autosize=1;strokeColor=none;fillColor=none;fontSize=16;" vertex="1" parent="1">
          <mxGeometry x="77" y="134" width="38" height="31" as="geometry" />
        </mxCell>
        <mxCell id="G_kxq7jRXtpMgkCP8lNp-15" value="P4" style="text;html=1;align=center;verticalAlign=middle;resizable=0;points=[];autosize=1;strokeColor=none;fillColor=none;fontSize=16;" vertex="1" parent="1">
          <mxGeometry x="77" y="86" width="38" height="31" as="geometry" />
        </mxCell>
        <mxCell id="G_kxq7jRXtpMgkCP8lNp-16" value="" style="endArrow=classic;html=1;rounded=0;fontSize=12;startSize=8;endSize=8;curved=1;entryX=-0.053;entryY=0.516;entryDx=0;entryDy=0;entryPerimeter=0;" edge="1" parent="1">
          <mxGeometry width="50" height="50" relative="1" as="geometry">
            <mxPoint x="-54" y="2.8800000000000026" as="sourcePoint" />
            <mxPoint x="74.98599999999988" y="2.876000000000097" as="targetPoint" />
          </mxGeometry>
        </mxCell>
        <mxCell id="G_kxq7jRXtpMgkCP8lNp-17" value="" style="endArrow=classic;html=1;rounded=0;fontSize=12;startSize=8;endSize=8;curved=1;entryX=-0.026;entryY=0.613;entryDx=0;entryDy=0;entryPerimeter=0;" edge="1" parent="1">
          <mxGeometry width="50" height="50" relative="1" as="geometry">
            <mxPoint x="-48" y="57.879999999999995" as="sourcePoint" />
            <mxPoint x="77" y="58.879999999999995" as="targetPoint" />
          </mxGeometry>
        </mxCell>
        <mxCell id="G_kxq7jRXtpMgkCP8lNp-18" value="" style="endArrow=classic;html=1;rounded=0;fontSize=12;startSize=8;endSize=8;curved=1;" edge="1" parent="1">
          <mxGeometry width="50" height="50" relative="1" as="geometry">
            <mxPoint x="74" y="-42" as="sourcePoint" />
            <mxPoint x="-45" y="-42" as="targetPoint" />
          </mxGeometry>
        </mxCell>
        <mxCell id="G_kxq7jRXtpMgkCP8lNp-19" value="VCC" style="text;html=1;align=center;verticalAlign=middle;resizable=0;points=[];autosize=1;strokeColor=none;fillColor=none;fontSize=16;" vertex="1" parent="1">
          <mxGeometry x="226" y="-78" width="52" height="31" as="geometry" />
        </mxCell>
        <mxCell id="G_kxq7jRXtpMgkCP8lNp-20" value="P11" style="text;html=1;align=center;verticalAlign=middle;resizable=0;points=[];autosize=1;strokeColor=none;fillColor=none;fontSize=16;" vertex="1" parent="1">
          <mxGeometry x="152" y="91" width="45" height="31" as="geometry" />
        </mxCell>
        <mxCell id="G_kxq7jRXtpMgkCP8lNp-21" value="P12" style="text;html=1;align=center;verticalAlign=middle;resizable=0;points=[];autosize=1;strokeColor=none;fillColor=none;fontSize=16;" vertex="1" parent="1">
          <mxGeometry x="151" y="43" width="46" height="31" as="geometry" />
        </mxCell>
        <mxCell id="G_kxq7jRXtpMgkCP8lNp-22" value="P13" style="text;html=1;align=center;verticalAlign=middle;resizable=0;points=[];autosize=1;strokeColor=none;fillColor=none;fontSize=16;" vertex="1" parent="1">
          <mxGeometry x="151" y="-7" width="46" height="31" as="geometry" />
        </mxCell>
        <mxCell id="G_kxq7jRXtpMgkCP8lNp-23" value="" style="endArrow=classic;html=1;rounded=0;fontSize=12;startSize=8;endSize=8;curved=0;" edge="1" parent="1">
          <mxGeometry width="50" height="50" relative="1" as="geometry">
            <mxPoint x="193" y="7.8799999999999955" as="sourcePoint" />
            <mxPoint x="803" y="94" as="targetPoint" />
            <Array as="points">
              <mxPoint x="401" y="8" />
              <mxPoint x="401" y="335" />
              <mxPoint x="914" y="333" />
              <mxPoint x="911" y="96" />
            </Array>
          </mxGeometry>
        </mxCell>
        <mxCell id="G_kxq7jRXtpMgkCP8lNp-25" value="" style="endArrow=classic;html=1;rounded=0;fontSize=12;startSize=8;endSize=8;curved=1;exitX=-0.026;exitY=0.516;exitDx=0;exitDy=0;exitPerimeter=0;" edge="1" parent="1">
          <mxGeometry width="50" height="50" relative="1" as="geometry">
            <mxPoint x="324" y="238.5" as="sourcePoint" />
            <mxPoint x="197" y="238.5" as="targetPoint" />
          </mxGeometry>
        </mxCell>
        <mxCell id="G_kxq7jRXtpMgkCP8lNp-26" value="" style="endArrow=classic;html=1;rounded=0;fontSize=12;startSize=8;endSize=8;curved=1;exitX=-0.026;exitY=0.516;exitDx=0;exitDy=0;exitPerimeter=0;" edge="1" parent="1">
          <mxGeometry width="50" height="50" relative="1" as="geometry">
            <mxPoint x="320" y="60" as="sourcePoint" />
            <mxPoint x="193" y="60" as="targetPoint" />
          </mxGeometry>
        </mxCell>
        <mxCell id="G_kxq7jRXtpMgkCP8lNp-27" value="" style="endArrow=classic;html=1;rounded=0;fontSize=12;startSize=8;endSize=8;curved=1;exitX=-0.026;exitY=0.516;exitDx=0;exitDy=0;exitPerimeter=0;" edge="1" parent="1">
          <mxGeometry width="50" height="50" relative="1" as="geometry">
            <mxPoint x="324" y="105.88" as="sourcePoint" />
            <mxPoint x="197" y="105.88" as="targetPoint" />
          </mxGeometry>
        </mxCell>
        <mxCell id="G_kxq7jRXtpMgkCP8lNp-28" value="" style="endArrow=classic;html=1;rounded=0;fontSize=12;startSize=8;endSize=8;curved=1;exitX=-0.026;exitY=0.516;exitDx=0;exitDy=0;exitPerimeter=0;" edge="1" parent="1">
          <mxGeometry width="50" height="50" relative="1" as="geometry">
            <mxPoint x="320" y="196" as="sourcePoint" />
            <mxPoint x="193" y="196" as="targetPoint" />
          </mxGeometry>
        </mxCell>
        <mxCell id="G_kxq7jRXtpMgkCP8lNp-29" value="" style="endArrow=classic;html=1;rounded=0;fontSize=12;startSize=8;endSize=8;curved=1;entryX=-0.026;entryY=0.613;entryDx=0;entryDy=0;entryPerimeter=0;" edge="1" parent="1">
          <mxGeometry width="50" height="50" relative="1" as="geometry">
            <mxPoint x="197" y="148.88" as="sourcePoint" />
            <mxPoint x="322" y="149.88" as="targetPoint" />
          </mxGeometry>
        </mxCell>
        <mxCell id="G_kxq7jRXtpMgkCP8lNp-30" value="" style="endArrow=classic;html=1;rounded=0;fontSize=12;startSize=8;endSize=8;curved=1;" edge="1" parent="1">
          <mxGeometry width="50" height="50" relative="1" as="geometry">
            <mxPoint x="77" y="100.87" as="sourcePoint" />
            <mxPoint x="-42" y="100.87" as="targetPoint" />
          </mxGeometry>
        </mxCell>
        <mxCell id="G_kxq7jRXtpMgkCP8lNp-31" value="" style="endArrow=classic;html=1;rounded=0;fontSize=12;startSize=8;endSize=8;curved=1;entryX=-0.026;entryY=0.613;entryDx=0;entryDy=0;entryPerimeter=0;" edge="1" parent="1">
          <mxGeometry width="50" height="50" relative="1" as="geometry">
            <mxPoint x="-45" y="148.88" as="sourcePoint" />
            <mxPoint x="80" y="149.88" as="targetPoint" />
          </mxGeometry>
        </mxCell>
        <mxCell id="G_kxq7jRXtpMgkCP8lNp-32" value="" style="endArrow=classic;html=1;rounded=0;fontSize=12;startSize=8;endSize=8;curved=1;entryX=-0.026;entryY=0.613;entryDx=0;entryDy=0;entryPerimeter=0;" edge="1" parent="1">
          <mxGeometry width="50" height="50" relative="1" as="geometry">
            <mxPoint x="-48" y="199" as="sourcePoint" />
            <mxPoint x="77" y="200" as="targetPoint" />
          </mxGeometry>
        </mxCell>
        <mxCell id="uV560sqqrPtI5SdySFJv-1" value="" style="rounded=0;whiteSpace=wrap;html=1;" vertex="1" parent="1">
          <mxGeometry x="562" y="-51" width="116" height="314" as="geometry" />
        </mxCell>
        <mxCell id="uV560sqqrPtI5SdySFJv-2" value="P7" style="text;html=1;align=center;verticalAlign=middle;whiteSpace=wrap;rounded=0;fontSize=16;" vertex="1" parent="1">
          <mxGeometry x="551" y="231" width="60" height="30" as="geometry" />
        </mxCell>
        <mxCell id="uV560sqqrPtI5SdySFJv-3" value="" style="endArrow=none;html=1;rounded=0;fontSize=12;startSize=8;endSize=8;curved=1;entryX=0;entryY=0.5;entryDx=0;entryDy=0;startArrow=classic;startFill=1;endFill=0;" edge="1" parent="1" target="uV560sqqrPtI5SdySFJv-2">
          <mxGeometry width="50" height="50" relative="1" as="geometry">
            <mxPoint x="441" y="246" as="sourcePoint" />
            <mxPoint x="710" y="184" as="targetPoint" />
          </mxGeometry>
        </mxCell>
        <mxCell id="uV560sqqrPtI5SdySFJv-4" value="GND" style="text;html=1;align=center;verticalAlign=middle;resizable=0;points=[];autosize=1;strokeColor=none;fillColor=none;fontSize=16;" vertex="1" parent="1">
          <mxGeometry x="459.5" y="216.5" width="54" height="31" as="geometry" />
        </mxCell>
        <mxCell id="uV560sqqrPtI5SdySFJv-5" value="P14" style="text;html=1;align=center;verticalAlign=middle;resizable=0;points=[];autosize=1;strokeColor=none;fillColor=none;fontSize=16;" vertex="1" parent="1">
          <mxGeometry x="632" y="-51" width="46" height="31" as="geometry" />
        </mxCell>
        <mxCell id="uV560sqqrPtI5SdySFJv-6" value="" style="endArrow=classic;html=1;rounded=0;fontSize=12;startSize=8;endSize=8;curved=1;entryX=1;entryY=0.484;entryDx=0;entryDy=0;entryPerimeter=0;" edge="1" parent="1" target="uV560sqqrPtI5SdySFJv-5">
          <mxGeometry width="50" height="50" relative="1" as="geometry">
            <mxPoint x="787" y="-36" as="sourcePoint" />
            <mxPoint x="674" y="184" as="targetPoint" />
          </mxGeometry>
        </mxCell>
        <mxCell id="uV560sqqrPtI5SdySFJv-7" value="P1" style="text;html=1;align=center;verticalAlign=middle;resizable=0;points=[];autosize=1;strokeColor=none;fillColor=none;fontSize=16;" vertex="1" parent="1">
          <mxGeometry x="562" y="-51" width="38" height="31" as="geometry" />
        </mxCell>
        <mxCell id="uV560sqqrPtI5SdySFJv-8" value="P2" style="text;html=1;align=center;verticalAlign=middle;resizable=0;points=[];autosize=1;strokeColor=none;fillColor=none;fontSize=16;" vertex="1" parent="1">
          <mxGeometry x="562" y="-3" width="38" height="31" as="geometry" />
        </mxCell>
        <mxCell id="uV560sqqrPtI5SdySFJv-9" value="P3" style="text;html=1;align=center;verticalAlign=middle;resizable=0;points=[];autosize=1;strokeColor=none;fillColor=none;fontSize=16;" vertex="1" parent="1">
          <mxGeometry x="562" y="46" width="38" height="31" as="geometry" />
        </mxCell>
        <mxCell id="uV560sqqrPtI5SdySFJv-10" value="P8" style="text;html=1;align=center;verticalAlign=middle;resizable=0;points=[];autosize=1;strokeColor=none;fillColor=none;fontSize=16;" vertex="1" parent="1">
          <mxGeometry x="640" y="231" width="38" height="31" as="geometry" />
        </mxCell>
        <mxCell id="uV560sqqrPtI5SdySFJv-11" value="P9" style="text;html=1;align=center;verticalAlign=middle;resizable=0;points=[];autosize=1;strokeColor=none;fillColor=none;fontSize=16;" vertex="1" parent="1">
          <mxGeometry x="636" y="189" width="38" height="31" as="geometry" />
        </mxCell>
        <mxCell id="uV560sqqrPtI5SdySFJv-12" value="P10" style="text;html=1;align=center;verticalAlign=middle;resizable=0;points=[];autosize=1;strokeColor=none;fillColor=none;fontSize=16;" vertex="1" parent="1">
          <mxGeometry x="632" y="143" width="46" height="31" as="geometry" />
        </mxCell>
        <mxCell id="uV560sqqrPtI5SdySFJv-13" value="P6" style="text;html=1;align=center;verticalAlign=middle;resizable=0;points=[];autosize=1;strokeColor=none;fillColor=none;fontSize=16;" vertex="1" parent="1">
          <mxGeometry x="562" y="189" width="38" height="31" as="geometry" />
        </mxCell>
        <mxCell id="uV560sqqrPtI5SdySFJv-14" value="P5" style="text;html=1;align=center;verticalAlign=middle;resizable=0;points=[];autosize=1;strokeColor=none;fillColor=none;fontSize=16;" vertex="1" parent="1">
          <mxGeometry x="562" y="143" width="38" height="31" as="geometry" />
        </mxCell>
        <mxCell id="uV560sqqrPtI5SdySFJv-15" value="P4" style="text;html=1;align=center;verticalAlign=middle;resizable=0;points=[];autosize=1;strokeColor=none;fillColor=none;fontSize=16;" vertex="1" parent="1">
          <mxGeometry x="562" y="95" width="38" height="31" as="geometry" />
        </mxCell>
        <mxCell id="uV560sqqrPtI5SdySFJv-19" value="VCC" style="text;html=1;align=center;verticalAlign=middle;resizable=0;points=[];autosize=1;strokeColor=none;fillColor=none;fontSize=16;" vertex="1" parent="1">
          <mxGeometry x="711" y="-69" width="52" height="31" as="geometry" />
        </mxCell>
        <mxCell id="uV560sqqrPtI5SdySFJv-20" value="P11" style="text;html=1;align=center;verticalAlign=middle;resizable=0;points=[];autosize=1;strokeColor=none;fillColor=none;fontSize=16;" vertex="1" parent="1">
          <mxGeometry x="637" y="100" width="45" height="31" as="geometry" />
        </mxCell>
        <mxCell id="uV560sqqrPtI5SdySFJv-21" value="P12" style="text;html=1;align=center;verticalAlign=middle;resizable=0;points=[];autosize=1;strokeColor=none;fillColor=none;fontSize=16;" vertex="1" parent="1">
          <mxGeometry x="636" y="52" width="46" height="31" as="geometry" />
        </mxCell>
        <mxCell id="uV560sqqrPtI5SdySFJv-22" value="P13" style="text;html=1;align=center;verticalAlign=middle;resizable=0;points=[];autosize=1;strokeColor=none;fillColor=none;fontSize=16;" vertex="1" parent="1">
          <mxGeometry x="636" y="2" width="46" height="31" as="geometry" />
        </mxCell>
        <mxCell id="uV560sqqrPtI5SdySFJv-23" value="" style="endArrow=classic;html=1;rounded=0;fontSize=12;startSize=8;endSize=8;curved=1;entryX=-0.026;entryY=0.613;entryDx=0;entryDy=0;entryPerimeter=0;" edge="1" parent="1">
          <mxGeometry width="50" height="50" relative="1" as="geometry">
            <mxPoint x="678" y="16.879999999999995" as="sourcePoint" />
            <mxPoint x="803" y="17.879999999999995" as="targetPoint" />
          </mxGeometry>
        </mxCell>
        <mxCell id="uV560sqqrPtI5SdySFJv-25" value="" style="endArrow=classic;html=1;rounded=0;fontSize=12;startSize=8;endSize=8;curved=1;exitX=-0.026;exitY=0.516;exitDx=0;exitDy=0;exitPerimeter=0;" edge="1" parent="1">
          <mxGeometry width="50" height="50" relative="1" as="geometry">
            <mxPoint x="805" y="69" as="sourcePoint" />
            <mxPoint x="678" y="69" as="targetPoint" />
          </mxGeometry>
        </mxCell>
        <mxCell id="uV560sqqrPtI5SdySFJv-26" value="" style="endArrow=classic;html=1;rounded=0;fontSize=12;startSize=8;endSize=8;curved=1;exitX=-0.026;exitY=0.516;exitDx=0;exitDy=0;exitPerimeter=0;" edge="1" parent="1">
          <mxGeometry width="50" height="50" relative="1" as="geometry">
            <mxPoint x="809" y="114.88" as="sourcePoint" />
            <mxPoint x="682" y="114.88" as="targetPoint" />
          </mxGeometry>
        </mxCell>
        <mxCell id="uV560sqqrPtI5SdySFJv-32" value="SW_1, A" style="text;html=1;align=center;verticalAlign=middle;resizable=0;points=[];autosize=1;strokeColor=none;fillColor=none;fontSize=16;" vertex="1" parent="1">
          <mxGeometry x="-41.5" y="-26.5" width="80" height="31" as="geometry" />
        </mxCell>
        <mxCell id="uV560sqqrPtI5SdySFJv-33" value="SW_2, B" style="text;html=1;align=center;verticalAlign=middle;resizable=0;points=[];autosize=1;strokeColor=none;fillColor=none;fontSize=16;" vertex="1" parent="1">
          <mxGeometry x="-39.5" y="29.5" width="81" height="31" as="geometry" />
        </mxCell>
        <mxCell id="uV560sqqrPtI5SdySFJv-34" value="C, D" style="text;html=1;align=center;verticalAlign=middle;resizable=0;points=[];autosize=1;strokeColor=none;fillColor=none;fontSize=16;" vertex="1" parent="1">
          <mxGeometry x="-12.5" y="-73.5" width="50" height="31" as="geometry" />
        </mxCell>
        <mxCell id="uV560sqqrPtI5SdySFJv-35" value="A" style="text;html=1;align=center;verticalAlign=middle;resizable=0;points=[];autosize=1;strokeColor=none;fillColor=none;fontSize=16;" vertex="1" parent="1">
          <mxGeometry x="1.5" y="119.5" width="29" height="31" as="geometry" />
        </mxCell>
        <mxCell id="uV560sqqrPtI5SdySFJv-36" value="B" style="text;html=1;align=center;verticalAlign=middle;resizable=0;points=[];autosize=1;strokeColor=none;fillColor=none;fontSize=16;" vertex="1" parent="1">
          <mxGeometry x="240.5" y="168.5" width="29" height="31" as="geometry" />
        </mxCell>
        <mxCell id="uV560sqqrPtI5SdySFJv-37" value="C" style="text;html=1;align=center;verticalAlign=middle;resizable=0;points=[];autosize=1;strokeColor=none;fillColor=none;fontSize=16;" vertex="1" parent="1">
          <mxGeometry x="-7.5" y="160.5" width="30" height="31" as="geometry" />
        </mxCell>
        <mxCell id="uV560sqqrPtI5SdySFJv-38" value="D" style="text;html=1;align=center;verticalAlign=middle;resizable=0;points=[];autosize=1;strokeColor=none;fillColor=none;fontSize=16;" vertex="1" parent="1">
          <mxGeometry x="238.5" y="209.5" width="30" height="31" as="geometry" />
        </mxCell>
        <mxCell id="uV560sqqrPtI5SdySFJv-40" value="E" style="text;html=1;align=center;verticalAlign=middle;resizable=0;points=[];autosize=1;strokeColor=none;fillColor=none;fontSize=16;" vertex="1" parent="1">
          <mxGeometry x="235.5" y="116.5" width="29" height="31" as="geometry" />
        </mxCell>
        <mxCell id="uV560sqqrPtI5SdySFJv-41" value="E" style="text;html=1;align=center;verticalAlign=middle;resizable=0;points=[];autosize=1;strokeColor=none;fillColor=none;fontSize=16;" vertex="1" parent="1">
          <mxGeometry x="231.5" y="31.5" width="29" height="31" as="geometry" />
        </mxCell>
        <mxCell id="uV560sqqrPtI5SdySFJv-42" value="F" style="text;html=1;align=center;verticalAlign=middle;resizable=0;points=[];autosize=1;strokeColor=none;fillColor=none;fontSize=16;" vertex="1" parent="1">
          <mxGeometry x="-2.5" y="71.5" width="28" height="31" as="geometry" />
        </mxCell>
        <mxCell id="uV560sqqrPtI5SdySFJv-43" value="F" style="text;html=1;align=center;verticalAlign=middle;resizable=0;points=[];autosize=1;strokeColor=none;fillColor=none;fontSize=16;" vertex="1" parent="1">
          <mxGeometry x="242.5" y="80.5" width="28" height="31" as="geometry" />
        </mxCell>
        <mxCell id="uV560sqqrPtI5SdySFJv-44" value="G, H" style="text;html=1;align=center;verticalAlign=middle;resizable=0;points=[];autosize=1;strokeColor=none;fillColor=none;fontSize=16;" vertex="1" parent="1">
          <mxGeometry x="217.5" y="-20.5" width="51" height="31" as="geometry" />
        </mxCell>
        <mxCell id="uV560sqqrPtI5SdySFJv-45" value="G" style="text;html=1;align=center;verticalAlign=middle;resizable=0;points=[];autosize=1;strokeColor=none;fillColor=none;fontSize=16;" vertex="1" parent="1">
          <mxGeometry x="706.5" y="40.5" width="30" height="31" as="geometry" />
        </mxCell>
        <mxCell id="uV560sqqrPtI5SdySFJv-46" value="H" style="text;html=1;align=center;verticalAlign=middle;resizable=0;points=[];autosize=1;strokeColor=none;fillColor=none;fontSize=16;" vertex="1" parent="1">
          <mxGeometry x="716" y="85.5" width="30" height="31" as="geometry" />
        </mxCell>
        <mxCell id="uV560sqqrPtI5SdySFJv-47" value="LED" style="text;html=1;align=center;verticalAlign=middle;resizable=0;points=[];autosize=1;strokeColor=none;fillColor=none;fontSize=16;" vertex="1" parent="1">
          <mxGeometry x="697" y="-14" width="49" height="31" as="geometry" />
        </mxCell>
        <mxCell id="uV560sqqrPtI5SdySFJv-48" value="" style="endArrow=none;html=1;rounded=0;fontSize=12;startSize=8;endSize=8;curved=1;" edge="1" parent="1">
          <mxGeometry width="50" height="50" relative="1" as="geometry">
            <mxPoint x="807" y="117" as="sourcePoint" />
            <mxPoint x="804" y="67" as="targetPoint" />
          </mxGeometry>
        </mxCell>
      </root>
    </mxGraphModel>
  </diagram>
</mxfile>
